<svg width="15" height="15" viewBox="0 0 15 15" fill="none" xmlns="http://www.w3.org/2000/svg">
<path d="M6.82453 1.79268C6.89331 1.67466 6.99183 1.57673 7.11027 1.50867C7.22871 1.4406 7.36293 1.40479 7.49953 1.40479C7.63614 1.40479 7.77035 1.4406 7.88879 1.50867C8.00723 1.57673 8.10575 1.67466 8.17453 1.79268L9.92141 4.79143L13.3139 5.52643C13.4474 5.55543 13.5709 5.6189 13.6721 5.71052C13.7734 5.80213 13.8489 5.91869 13.8911 6.04857C13.9332 6.17845 13.9406 6.31712 13.9125 6.45076C13.8844 6.58439 13.8217 6.70832 13.7308 6.81018L11.4183 9.39831L11.7683 12.8514C11.7821 12.9874 11.76 13.1246 11.7042 13.2494C11.6484 13.3741 11.5608 13.4821 11.4502 13.5624C11.3397 13.6427 11.21 13.6927 11.0741 13.7072C10.9382 13.7217 10.8008 13.7003 10.6758 13.6452L7.49953 12.2452L4.32328 13.6452C4.19823 13.7003 4.0609 13.7217 3.925 13.7072C3.78911 13.6927 3.6594 13.6427 3.54883 13.5624C3.43826 13.4821 3.3507 13.3741 3.29489 13.2494C3.23908 13.1246 3.21698 12.9874 3.23078 12.8514L3.58078 9.39831L1.26828 6.81081C1.17718 6.70895 1.11438 6.58497 1.08617 6.45126C1.05795 6.31754 1.06531 6.17876 1.1075 6.04878C1.14969 5.91879 1.22524 5.80215 1.3266 5.71049C1.42796 5.61884 1.5516 5.55537 1.68516 5.52643L5.07766 4.79143L6.82453 1.79268Z" fill="#FFC436" fill-opacity="0.9"/>
</svg>
